<?xml version="1.0" encoding="utf-8"?>
<!-- Generator: Adobe Illustrator 18.0.0, SVG Export Plug-In . SVG Version: 6.00 Build 0)  -->
<!DOCTYPE svg PUBLIC "-//W3C//DTD SVG 1.1//EN" "http://www.w3.org/Graphics/SVG/1.1/DTD/svg11.dtd">
<svg version="1.1" id="Calque_1" xmlns="http://www.w3.org/2000/svg" xmlns:xlink="http://www.w3.org/1999/xlink" x="0px" y="0px"
	 viewBox="0 0 500 500" enable-background="new 0 0 500 500" xml:space="preserve">
<g id="Layer_1" display="none">
	<g display="inline">
		<rect x="-10" y="-10" fill="none" stroke="#4D4D4D" stroke-miterlimit="10" width="520" height="520"/>
	</g>
	<g display="inline">
		<g>
			<path fill="#FFFFFF" d="M422.9,412.4c0-115.7,0-231.4,0-347.2c-107.2,0-214.5,0-321.9,0c0,115.7,0,231.5,0,347.2
				C208.3,412.4,315.6,412.4,422.9,412.4z M253.9,401c-5.2-0.4-14.8-0.8-24.3-1.8c-6.7-0.7-13.4-2-19.9-3.7
				c-40.4-10.3-70.2-32.2-83.4-73.8c-13.2-41.4-16-82.7-2.7-124.4c14.3-44.9,41.6-80.8,77.6-110.6c13.1-10.8,27.9-13.5,44.2-10.2
				c14.1,2.8,26.7,9.2,39.2,15.9c56.8,30.5,94.3,77.3,115.4,137.7c7.9,22.7,14.4,45.8,11.6,70.3c-2.1,18.3-7.7,35.1-18.8,49.8
				c-13.6,18.1-32.1,29.6-52.9,37.7C313.5,398.1,286,400.4,253.9,401z"/>
			<path d="M253.9,401c32.1-0.6,59.6-2.9,85.9-13.1c20.8-8.1,39.3-19.5,52.9-37.7c11.1-14.8,16.7-31.6,18.8-49.8
				c2.8-24.6-3.7-47.7-11.6-70.3c-21-60.4-58.5-107.2-115.4-137.7c-12.5-6.7-25.1-13.1-39.2-15.9c-16.3-3.3-31.1-0.6-44.2,10.2
				c-36.1,29.7-63.3,65.7-77.6,110.6c-13.3,41.7-10.5,83,2.7,124.4c13.3,41.6,43,63.5,83.4,73.8c6.5,1.7,13.2,2.9,19.9,3.7
				C239.1,400.2,248.7,400.6,253.9,401z M226.4,275.9c-0.3,0.5-0.7,1-1,1.4c1.2,1.2,2.1,3,3.6,3.5c17.5,5.4,35,10.1,53.7,8.2
				c18.1-1.8,28.4-15.3,24.9-33.1c-0.9-4.4-2.2-8.8-2.2-13.1c-0.1-3.3,0.5-7.6,2.6-9.9c5.6-6.6,13.8-6.8,19.8-0.5
				c4.3,4.5,8.2,9.6,11,15c5.7,10.8,4.1,21.2-3.7,30.6c-7.1,8.5-16.4,14-26.7,18c-16.5,6.3-27.5,17.3-29.9,35.4
				c-0.6,4.5-0.4,9.2-1.2,13.7c-2,11.6-7.5,19.7-20,22.6c-18.8,4.3-37.4,5.7-55.7-1.5c-22.4-8.8-37.3-25.5-46-47.2
				c-12.9-32-15.8-65.3-9.6-99.3c6-33.1,20.9-62,43.7-86.6c7.3-7.9,15.5-15.4,24.6-21.1c16.9-10.7,35.1-8.6,53-2
				c17.1,6.3,29.7,18.7,41.9,31.4c24.8,25.9,42.9,56.4,57.2,89.1c8,18.2,16,36.5,18.7,56.4c2.7,19.7-2,37.3-16.7,51.4
				c-14.7,14-32.8,20.7-52.5,23.7c-5.4,0.8-10.8-3.1-13.1-8.7c-0.9-2.1-1.5-4.3-2.1-6.6c-3.3-13.5,1.7-24.2,14.1-30.5
				c15.7-7.9,28.3-19.1,36.6-34.8c4.6-8.7,7.3-18,6.2-27.9c-1.3-12-7.7-21.2-16.8-28.6c-10.1-8-21.1-13.9-34.4-14.2
				c-9.7-0.2-15.8,4.4-17.1,13.4c-0.6,4.2,0.1,8.6,0.9,12.8c1.1,5.7,3.2,11.3,4.5,17c2.8,12.2-4.8,23.1-16.6,25.1
				c-11.8,2.1-23.4,1-35-0.6C237.3,277.9,231.9,276.8,226.4,275.9z"/>
			<path fill="#FFFFFF" d="M226.4,275.9c5.5,0.9,10.9,2,16.4,2.8c11.6,1.6,23.2,2.7,35,0.6c11.8-2.1,19.4-13,16.6-25.1
				c-1.3-5.7-3.3-11.2-4.5-17c-0.8-4.2-1.5-8.7-0.9-12.8c1.2-9,7.3-13.6,17.1-13.4c13.3,0.3,24.3,6.1,34.4,14.2
				c9.2,7.4,15.5,16.5,16.8,28.6c1.1,10-1.6,19.2-6.2,27.9c-8.3,15.7-20.9,26.9-36.6,34.8c-12.4,6.3-17.4,17-14.1,30.5
				c0.5,2.2,1.2,4.4,2.1,6.6c2.3,5.6,7.7,9.5,13.1,8.7c19.7-3,37.8-9.7,52.5-23.7c14.8-14.1,19.4-31.7,16.7-51.4
				c-2.7-19.9-10.7-38.2-18.7-56.4c-14.3-32.7-32.4-63.1-57.2-89.1c-12.2-12.7-24.8-25.1-41.9-31.4c-18-6.6-36.1-8.7-53,2
				c-9.1,5.7-17.3,13.2-24.6,21.1c-22.8,24.6-37.7,53.5-43.7,86.6c-6.2,33.9-3.2,67.3,9.6,99.3c8.7,21.7,23.7,38.4,46,47.2
				c18.3,7.2,36.9,5.8,55.7,1.5c12.6-2.9,18-11,20-22.6c0.8-4.5,0.6-9.2,1.2-13.7c2.4-18.1,13.4-29.2,29.9-35.4
				c10.3-3.9,19.5-9.4,26.7-18c7.8-9.4,9.4-19.8,3.7-30.6c-2.9-5.4-6.8-10.6-11-15c-6-6.3-14.2-6.1-19.8,0.5c-2,2.4-2.6,6.6-2.6,9.9
				c0.1,4.4,1.4,8.8,2.2,13.1c3.5,17.8-6.8,31.4-24.9,33.1c-18.6,1.8-36.2-2.8-53.7-8.2c-1.4-0.4-2.4-2.3-3.6-3.5
				C225.7,276.8,226.1,276.3,226.4,275.9z M235.4,158.6c17,0.1,30.6,5.3,42.7,15c9.5,7.6,12.6,17.9,11.6,29.3
				c-1.5,17.4-11.7,29.3-26.3,38c-3.7,2.2-7.4,4.6-11,6.9c-2.9,1.9-5.6,4.7-8.8,5.6c-14.9,4.3-28.2,1.2-39.6-9.5
				c-9.3-8.8-14.1-20.1-17.3-32.2c-4-15.1-0.1-27.9,10.9-38.8C208.5,162.2,222.3,159.3,235.4,158.6z M166.7,268.6
				c0.3-0.1,0.6-0.2,0.9-0.3c0.3-2.5,0.4-5.1,0.8-7.6c1.7-9.6,5.2-18.2,14.5-23c5.6-2.9,9.4-1.1,11.6,4.8c1.6,4.4,3.6,8.7,6,12.7
				c2,3.4,5.1,5.9,9.2,6.1c6.1,0.4,12.2,0.5,18-2.4c3.9-1.9,9.2-0.4,11,3.4c0.8,1.6,0.5,4.3-0.4,5.9c-0.5,0.9-4.1,1.4-4.9,0.6
				c-3.8-3.8-7-2.1-10.5,0.3c-5.4,3.6-11.4,5.3-17.8,4.3c-6.5-1-6.6-1-7.4,5.6c-0.2,1.8-0.2,3.6,0,5.4c0.5,3.9,1.8,7.6,5.3,9.8
				c1.2,0.8,3.1,0.4,4.7,0.6c0-1.2,0.2-2.4,0-3.5c-0.7-4.5,1.3-7.4,5.7-8.4c9.6-2.1,16.7,1.6,22.1,9.2c2,2.8,3.6,4.8,7.4,2.6
				c1.3-0.7,3.2-0.5,4.9-0.5c2.9-0.1,5.7,0.8,6.4,3.7c0.6,2.4,0.6,5.5-0.6,7.5c-3.4,5.5-9,7.8-15.4,7.5c-1.7-0.1-3.5-1.7-4.8-3.1
				c-1.6-1.6-2.6-3.8-4.2-5.4c-0.8-0.8-2.7-1.1-3.8-0.7c-0.9,0.4-1.7,2-1.9,3.2c-0.2,1.6,0,3.3,0.4,4.9c0.9,3.6-0.5,6.2-3.2,8.4
				c-6.9,5.4-17.1,5.4-23.7-0.4c-10.1-8.7-18.6-18.7-23.9-30.9C170.2,282.4,168.8,275.4,166.7,268.6z"/>
			<path d="M235.4,158.6c-13.1,0.7-26.9,3.6-37.8,14.3c-11,10.8-14.9,23.7-10.9,38.8c3.2,12.1,8,23.4,17.3,32.2
				c11.4,10.7,24.7,13.8,39.6,9.5c3.2-0.9,5.9-3.7,8.8-5.6c3.6-2.3,7.3-4.7,11-6.9c14.6-8.7,24.8-20.6,26.3-38
				c1-11.3-2.2-21.7-11.6-29.3C266,163.9,252.4,158.7,235.4,158.6z M242.8,206c3.6,1.6,7.5,2.8,10.8,4.9c1.6,1,2.7,3.7,2.8,5.8
				c0.4,11.1-8.4,18.3-20,16.6c-6.2-0.9-9.6-4.1-10-9.2C225.8,214.8,233.2,207,242.8,206z"/>
			<path d="M166.7,268.6c2.1,6.8,3.5,13.8,6.3,20.2c5.3,12.2,13.8,22.3,23.9,30.9c6.6,5.7,16.8,5.8,23.7,0.4
				c2.7-2.1,4.1-4.7,3.2-8.4c-0.4-1.6-0.6-3.3-0.4-4.9c0.2-1.2,0.9-2.8,1.9-3.2c1-0.4,2.9-0.1,3.8,0.7c1.6,1.5,2.6,3.8,4.2,5.4
				c1.3,1.3,3.2,3,4.8,3.1c6.4,0.3,11.9-2,15.4-7.5c1.2-1.9,1.2-5.1,0.6-7.5c-0.7-2.9-3.5-3.8-6.4-3.7c-1.7,0-3.6-0.2-4.9,0.5
				c-3.7,2.1-5.4,0.2-7.4-2.6c-5.4-7.6-12.6-11.3-22.1-9.2c-4.5,1-6.4,3.9-5.7,8.4c0.2,1.1,0,2.3,0,3.5c-1.6-0.2-3.5,0.2-4.7-0.6
				c-3.5-2.2-4.8-5.8-5.3-9.8c-0.2-1.8-0.2-3.6,0-5.4c0.7-6.6,0.9-6.6,7.4-5.6c6.4,1,12.4-0.7,17.8-4.3c3.5-2.4,6.7-4.1,10.5-0.3
				c0.8,0.8,4.3,0.3,4.9-0.6c0.9-1.6,1.2-4.3,0.4-5.9c-1.8-3.8-7-5.3-11-3.4c-5.8,2.8-11.9,2.8-18,2.4c-4.1-0.3-7.3-2.8-9.2-6.1
				c-2.3-4-4.3-8.3-6-12.7c-2.2-5.9-6-7.7-11.6-4.8c-9.3,4.8-12.8,13.4-14.5,23c-0.4,2.5-0.6,5.1-0.8,7.6
				C167.3,268.4,167,268.5,166.7,268.6z"/>
			<path fill="#FFFFFF" d="M242.8,206c-9.7,0.9-17,8.8-16.3,18.1c0.4,5.1,3.8,8.3,10,9.2c11.7,1.7,20.4-5.5,20-16.6
				c-0.1-2-1.2-4.7-2.8-5.8C250.4,208.8,246.5,207.6,242.8,206z"/>
		</g>
	</g>
</g>
<g id="Layer_2_1_" display="none">
	<rect y="0" display="inline" fill="#FFFFFF" width="500" height="500"/>
	<path display="inline" fill="#B0392B" d="M278.4,234c0,0,4.4-2,24.4-22s10.5-54-11-60.5s-37-15.5-66.5,0s-20,39-12.5,51.5
		s18.5,35.4,41.5,35.5C273,238.6,278.4,234,278.4,234z"/>
	<path display="inline" fill="#FFFFFF" d="M280,197.3c0,0-7.2-10.8-20.6-5.5c-13.4,5.2-7.4,21.8-3.2,23S276,217,280,204.3V197.3z"/>
	<path display="inline" fill="#B0392B" d="M214.9,222c0,0-15.3-14.4-22.3,25.3c0,0,0,28,26.3,53.3c19,18.3,29.7,0,29.7,0
		s-4.2-9,1.5-12.9s9.9,7.9,9.9,7.9s10.1,7,18.1-6.6c6-10.2-7-11.1-7-11.1s-3.8-0.9-8.1,1.5s-7.1-8.4-8.5-8.8s-10.2-9.9-21.4-0.2
		c0,0-3.5,1-0.9,8.4c0,0-14.6,0.9-9-21.6c0,0,1.6,0.6,13.6,0s11.4-5.4,14.2-6.2c0,0,1.1-3.2,7.5,2.2c0,0,11-1.4,1.8-9.8
		c0,0-4.2-3.5-11.6,0.9c0,0-15,4.8-22.6-3.4C226.1,240.9,220.1,230.3,214.9,222z"/>
	<path display="inline" fill="#B0392B" d="M250.4,262.5c0,0,147.4-57.5,77.9-113.5s-129.5-2.5-153.5,24.5s-36,165,70.5,162.5
		s119.5-42,119.5-42v55.5c0,0-154.8,6.2-183,0C90.8,329.7,128.2,179,139.5,159c12.7-22.5,72.8-76.5,154.3-49s101.5,75.5,81,100.5
		S250.4,262.5,250.4,262.5z"/>
</g>
<g id="Def">
	<path fill="#FCFCFC" d="M310.8,133.3c-33.1-10-56.9-23.9-102.3,0s-30.8,60-19.2,79.3s28.4,54.5,63.9,54.6
		c28.9,0.1,37.1-6.9,37.1-6.9s6.7-3.1,37.5-33.9S343.9,143.3,310.8,133.3z M292.7,214.5c-6.2,19.6-30,18.1-36.5,16.2
		c-6.5-1.9-15.8-27.3,4.9-35.4c20.6-8.1,31.7,8.5,31.7,8.5V214.5z"/>
	<path fill="#FCFCFC" d="M192.5,241.9c0,0-23.6-22.1-34.4,39c0,0,0,43,40.5,82.1c29.2,28.2,45.7,0,45.7,0s-6.5-13.9,2.4-19.9
		s15.2,12.1,15.2,12.1s15.6,10.8,27.9-10.2c9.2-15.8-10.8-17.1-10.8-17.1s-5.8-1.3-12.5,2.3s-11-12.9-13.1-13.5s-15.8-15.2-32.9-0.4
		c0,0-5.4,1.5-1.3,12.9c0,0-22.5,1.3-13.8-33.3c0,0,2.5,1,21,0s17.5-8.3,21.9-9.6c0,0,1.7-5,11.5,3.5c0,0,16.9-2.1,2.7-15
		c0,0-6.5-5.4-17.9,1.3c0,0-23.1,7.3-34.8-5.2C209.8,270.9,200.5,254.6,192.5,241.9z"/>
	<path fill="#FCFCFC" d="M247.1,304.2c0,0,226.8-88.5,119.8-174.7s-199.3-3.8-236.2,37.7S75.3,421.1,239.2,417.3
		s183.9-64.6,183.9-64.6V438c0,0-238.1,9.5-281.6,0c-139.9-30.5-82.3-262.4-65-293.2c19.5-34.6,112-117.7,237.4-75.4
		S470,185.7,438.5,224.1S247.1,304.2,247.1,304.2z"/>
</g>
</svg>
